<?xml version="1.0" standalone="no"?>
<!DOCTYPE svg PUBLIC "-//W3C//DTD SVG 20010904//EN"
 "http://www.w3.org/TR/2001/REC-SVG-20010904/DTD/svg10.dtd">
<svg version="1.0" xmlns="http://www.w3.org/2000/svg"
 width="225.000000pt" height="225.000000pt" viewBox="0 0 225.000000 225.000000"
 preserveAspectRatio="xMidYMid meet">

<g transform="translate(0.000000,225.000000) scale(0.100000,-0.100000)"
fill="#000000" stroke="none">
<path d="M380 1625 c-110 -31 -228 -119 -299 -222 -36 -53 -71 -160 -77 -236
-12 -147 38 -287 142 -397 102 -108 223 -160 374 -160 185 0 370 99 539 288
l63 70 111 -112 c168 -167 295 -234 462 -243 169 -10 283 34 400 151 79 80
119 151 141 254 17 84 17 130 0 214 -21 95 -60 171 -126 241 -104 112 -231
167 -380 167 -185 0 -367 -97 -539 -287 l-64 -70 -111 112 c-117 119 -201 176
-311 216 -80 28 -247 35 -325 14z m312 -198 c92 -45 209 -144 276 -233 l50
-68 -28 -40 c-40 -58 -175 -187 -240 -230 -83 -55 -168 -79 -254 -74 -171 11
-289 120 -319 294 -10 55 -9 76 6 132 44 171 175 267 354 259 70 -3 92 -9 155
-40z m1188 11 c214 -99 264 -391 97 -559 -90 -90 -233 -122 -358 -80 -36 12
-94 41 -129 65 -74 50 -187 158 -229 220 l-29 41 24 35 c39 57 164 179 229
223 95 65 165 88 260 84 60 -2 94 -10 135 -29z"/>
<path d="M350 1125 l0 -55 170 0 170 0 0 55 0 55 -170 0 -170 0 0 -55z"/>
<path d="M1670 1240 l0 -60 -55 0 -55 0 0 -55 0 -55 55 0 55 0 0 -60 0 -60 60
0 60 0 0 60 0 60 55 0 55 0 0 55 0 55 -55 0 -55 0 0 60 0 60 -60 0 -60 0 0
-60z"/>
</g>
</svg>
