<?xml version="1.0" standalone="no"?>
<!DOCTYPE svg PUBLIC "-//W3C//DTD SVG 20010904//EN"
 "http://www.w3.org/TR/2001/REC-SVG-20010904/DTD/svg10.dtd">
<svg version="1.0" xmlns="http://www.w3.org/2000/svg"
 width="225.000000pt" height="225.000000pt" viewBox="0 0 225.000000 225.000000"
 preserveAspectRatio="xMidYMid meet">

<g transform="translate(0.000000,225.000000) scale(0.100000,-0.100000)"
fill="#000000" stroke="none">
<path d="M1028 1730 c1 -214 -1 -390 -5 -390 -4 0 -78 70 -163 155 l-156 156
-68 -62 -68 -62 201 -201 201 -201 -201 -200 -200 -200 67 -63 68 -63 155 155
c86 86 160 156 164 156 4 0 6 -176 5 -390 -2 -215 0 -389 3 -388 3 2 150 136
327 298 l322 295 -72 70 c-40 39 -136 129 -212 200 l-139 131 211 194 c115
107 209 198 209 202 -2 6 -645 598 -650 598 -1 0 -1 -175 1 -390z m275 -88
l97 -97 -100 -100 -100 -100 0 198 c0 108 1 197 3 197 1 0 46 -44 100 -98z
m87 -906 c0 -5 -43 -52 -95 -105 l-95 -96 0 200 0 200 95 -95 c52 -52 95 -99
95 -104z"/>
</g>
</svg>
