<?xml version="1.0" standalone="no"?>
<!DOCTYPE svg PUBLIC "-//W3C//DTD SVG 20010904//EN"
 "http://www.w3.org/TR/2001/REC-SVG-20010904/DTD/svg10.dtd">
<svg version="1.0" xmlns="http://www.w3.org/2000/svg"
 width="512.000000pt" height="512.000000pt" viewBox="0 0 512.000000 512.000000"
 preserveAspectRatio="xMidYMid meet">

<g transform="translate(0.000000,512.000000) scale(0.100000,-0.100000)"
fill="#000000" stroke="none">
<path d="M1256 4328 c-112 -25 -175 -149 -130 -256 51 -122 199 -155 302 -66
l39 33 299 -136 c165 -74 307 -143 318 -152 43 -37 46 -64 46 -411 l0 -330
-136 0 c-79 0 -154 -5 -178 -12 -58 -18 -129 -90 -152 -155 l-19 -53 -115 0
c-63 0 -179 3 -257 7 l-142 6 -6 28 c-9 39 -85 106 -130 115 -90 17 -177 -23
-214 -98 -49 -103 -10 -211 94 -259 100 -46 219 8 255 116 l12 35 141 0 c78 0
193 -3 254 -7 l112 -6 12 -36 c7 -20 52 -129 101 -243 48 -113 88 -208 88
-211 0 -2 -156 -7 -347 -10 -319 -6 -349 -8 -373 -25 -48 -36 -50 -49 -50
-332 l0 -265 -48 -22 c-105 -48 -143 -179 -79 -274 66 -98 195 -114 284 -36
108 95 73 269 -63 319 l-34 12 0 267 c0 236 2 268 17 280 13 11 90 15 367 19
201 3 353 1 355 -4 2 -5 20 -27 40 -49 47 -53 101 -77 174 -77 l57 0 -2 -432
-3 -431 -30 -10 c-79 -26 -129 -96 -128 -182 1 -108 79 -185 188 -185 87 0
155 50 180 133 30 100 -20 197 -120 233 l-30 11 -3 431 -2 432 200 0 200 0 2
-287 3 -288 28 -3 27 -3 0 290 0 291 215 0 215 0 0 -274 c0 -169 4 -285 11
-303 14 -37 64 -89 103 -105 17 -7 191 -65 386 -128 l355 -116 7 -48 c15 -105
99 -173 203 -164 195 16 239 278 60 359 -77 35 -162 15 -223 -55 l-32 -37
-371 120 c-255 82 -379 127 -397 143 -49 45 -52 68 -52 346 l0 259 38 7 c54 8
128 61 158 111 14 24 79 158 146 297 131 276 138 300 100 374 -26 51 -120 140
-174 164 -32 15 -66 20 -130 20 l-88 0 0 180 c0 188 5 214 46 252 19 16 519
298 530 298 3 0 20 -11 37 -24 159 -120 370 49 288 230 -36 79 -132 125 -213
103 -97 -25 -155 -107 -145 -204 l5 -52 -263 -147 c-276 -154 -315 -184 -334
-253 -6 -21 -11 -116 -11 -210 l0 -173 -235 0 -235 0 0 320 0 320 -30 0 -30 0
0 -320 0 -320 -210 0 -209 0 -3 359 c-3 345 -4 361 -24 387 -34 46 -58 59
-364 199 l-295 134 -6 61 c-13 127 -115 205 -233 178z m99 -62 c68 -29 96
-126 55 -193 -69 -113 -240 -64 -240 69 0 104 90 163 185 124z m2620 -280 c97
-41 100 -192 5 -241 -117 -61 -240 79 -170 193 34 55 100 75 165 48z m-573
-1054 c56 -35 136 -128 143 -166 6 -28 -12 -73 -121 -302 -70 -148 -134 -279
-142 -292 -8 -13 -36 -35 -61 -50 l-46 -27 -543 -3 c-369 -2 -555 1 -583 8
-80 22 -99 52 -225 345 -112 262 -116 272 -112 331 5 88 59 155 141 174 17 5
365 8 772 7 l740 -2 37 -23z m-2382 -58 c39 -24 60 -65 60 -119 0 -42 -5 -52
-39 -86 -35 -35 -44 -39 -91 -39 -47 0 -56 4 -91 39 -34 34 -39 44 -39 85 0
88 45 135 128 136 24 0 56 -7 72 -16z m144 -1338 c60 -25 93 -94 76 -157 -14
-52 -60 -90 -113 -96 -148 -17 -207 186 -72 248 48 22 66 23 109 5z m3036
-331 c46 -24 70 -62 70 -113 0 -107 -102 -168 -198 -118 -41 21 -62 63 -62
122 0 41 5 51 39 85 32 33 45 39 80 39 23 0 55 -7 71 -15z m-1955 -105 c63
-39 82 -121 42 -181 -59 -89 -172 -86 -227 4 -70 115 70 248 185 177z"/>
<path d="M1984 2777 c-53 -46 -24 -127 46 -127 69 0 99 81 46 127 -34 29 -58
29 -92 0z"/>
<path d="M2293 2790 c-72 -30 -45 -140 34 -140 36 0 73 38 73 75 0 49 -59 85
-107 65z"/>
<path d="M2586 2779 c-19 -15 -26 -30 -26 -55 0 -90 125 -101 146 -12 5 22 0
33 -24 58 -36 35 -60 38 -96 9z"/>
<path d="M2904 2777 c-53 -46 -23 -127 46 -127 70 0 99 81 46 127 -34 29 -58
29 -92 0z"/>
<path d="M3214 2777 c-54 -47 -24 -127 47 -127 66 0 95 88 43 129 -34 27 -57
26 -90 -2z"/>
<path d="M2150 2530 c-15 -15 -20 -31 -18 -57 8 -89 122 -94 144 -6 16 62 -79
110 -126 63z"/>
<path d="M2440 2530 c-30 -30 -27 -83 6 -109 36 -29 60 -26 96 9 24 25 29 36
23 58 -3 15 -14 35 -22 45 -22 23 -78 22 -103 -3z"/>
<path d="M2750 2530 c-30 -30 -27 -83 6 -109 34 -27 57 -26 90 2 54 47 24 127
-47 127 -16 0 -38 -9 -49 -20z"/>
<path d="M3060 2523 c-16 -21 -20 -36 -15 -58 3 -16 7 -38 8 -49 1 -16 8 -17
51 -13 79 7 110 64 65 121 -29 37 -80 36 -109 -1z"/>
<path d="M2270 2288 c-27 -30 -26 -73 5 -103 28 -29 45 -31 84 -10 46 23 54
66 20 109 -27 34 -79 36 -109 4z"/>
<path d="M2580 2290 c-22 -22 -28 -84 -9 -95 6 -4 8 -13 5 -21 -4 -11 5 -14
35 -14 55 0 105 46 94 88 -3 15 -14 35 -22 45 -22 23 -78 22 -103 -3z"/>
<path d="M2901 2292 c-33 -26 -31 -79 3 -109 34 -29 58 -29 92 0 52 45 26 127
-41 127 -18 0 -43 -8 -54 -18z"/>
<path d="M4225 2366 c-39 -18 -80 -62 -99 -108 -40 -95 7 -201 106 -243 71
-29 140 -14 200 43 46 43 62 88 56 153 -12 124 -150 205 -263 155z m147 -63
c56 -28 78 -121 43 -180 -68 -116 -245 -62 -245 74 0 33 7 50 31 78 47 53 103
63 171 28z"/>
</g>
</svg>
