<?xml version="1.0" standalone="no"?>
<!DOCTYPE svg PUBLIC "-//W3C//DTD SVG 20010904//EN"
 "http://www.w3.org/TR/2001/REC-SVG-20010904/DTD/svg10.dtd">
<svg version="1.0" xmlns="http://www.w3.org/2000/svg"
 width="207.000000pt" height="205.000000pt" viewBox="0 0 207.000000 205.000000"
 preserveAspectRatio="xMidYMid meet">

<g transform="translate(0.000000,205.000000) scale(0.100000,-0.100000)"
fill="#000000" stroke="none">
<path d="M428 1883 c-22 -3 -28 -10 -28 -29 0 -19 -5 -24 -25 -24 -20 0 -25 5
-25 25 0 24 -2 25 -68 25 -93 0 -112 -19 -112 -113 0 -67 0 -67 28 -67 24 0
28 -4 27 -22 -1 -17 -9 -24 -29 -26 -24 -3 -27 -7 -24 -35 2 -20 9 -33 18 -33
8 -1 21 -2 28 -3 6 0 12 -10 12 -20 0 -13 -9 -21 -30 -26 -25 -5 -30 -11 -30
-36 0 -25 4 -29 28 -29 25 0 29 -4 30 -30 1 -27 -3 -30 -29 -30 -26 0 -29 -3
-29 -30 0 -27 3 -30 29 -30 26 0 29 -3 27 -27 -2 -22 -9 -29 -30 -31 -21 -3
-26 -8 -26 -33 0 -26 3 -29 31 -29 26 0 30 -3 27 -22 -2 -15 -12 -25 -28 -28
-20 -4 -26 -12 -28 -38 -3 -29 -1 -32 26 -32 25 0 30 -4 30 -25 0 -21 -5 -25
-29 -25 -26 0 -29 -3 -29 -35 0 -32 2 -35 30 -35 25 0 30 -4 30 -25 0 -21 -5
-25 -30 -25 -28 0 -30 -3 -30 -35 0 -32 2 -35 30 -35 25 0 30 -4 30 -25 0 -21
-5 -25 -30 -25 -28 0 -30 -3 -30 -35 0 -32 3 -35 29 -35 24 0 29 -4 29 -25 0
-21 -5 -25 -30 -25 -27 0 -29 -2 -26 -32 2 -21 9 -33 18 -34 32 -2 36 -5 38
-29 1 -22 -2 -25 -28 -25 -28 0 -30 -3 -30 -35 0 -32 2 -35 30 -35 25 0 30 -4
30 -25 0 -21 -5 -25 -30 -25 -27 0 -30 -3 -30 -34 0 -21 5 -34 13 -33 35 1 44
-4 43 -26 0 -12 -8 -23 -16 -23 -8 -1 -21 -2 -27 -3 -9 -1 -13 -22 -13 -70 0
-90 19 -108 114 -110 63 -1 65 0 68 27 2 19 9 28 26 30 19 3 22 -1 22 -27 0
-29 3 -31 35 -31 32 0 35 2 35 30 0 25 4 30 25 30 21 0 25 -5 25 -30 0 -28 3
-30 35 -30 32 0 35 2 35 30 0 25 4 30 25 30 21 0 25 -5 25 -30 0 -28 3 -30 35
-30 19 0 34 3 34 8 -5 32 3 48 26 50 22 1 25 -2 25 -28 0 -27 3 -30 29 -30 25
0 30 4 33 27 2 22 8 28 28 28 20 0 26 -6 28 -27 3 -25 8 -28 38 -28 31 0 34 2
34 31 0 26 3 30 23 27 16 -2 23 -11 25 -30 3 -25 8 -28 38 -28 31 0 34 2 34
30 0 23 4 30 20 30 11 0 21 -6 21 -12 1 -7 2 -20 3 -28 0 -9 13 -16 33 -18 28
-3 32 0 35 25 2 22 8 28 28 28 20 0 26 -6 28 -27 3 -22 8 -26 33 -26 25 1 29
5 29 30 0 26 3 29 28 26 21 -2 28 -9 30 -31 3 -23 8 -27 33 -27 26 0 29 3 29
30 0 26 3 29 25 28 14 -1 26 -7 26 -13 1 -5 2 -17 3 -25 0 -9 13 -16 33 -18
28 -3 32 0 35 25 2 20 9 29 26 31 19 3 22 -1 22 -27 0 -29 3 -31 34 -31 30 0
35 3 38 28 4 38 42 38 46 -1 3 -26 5 -27 71 -27 58 0 71 3 90 24 19 20 22 32
19 92 -3 61 -5 69 -23 69 -13 0 -21 8 -23 23 -3 18 1 22 22 22 23 0 26 4 26
35 0 30 -3 35 -24 35 -17 0 -25 7 -28 25 -5 22 -2 25 23 25 26 0 29 3 29 35 0
32 -3 35 -28 35 -24 0 -27 4 -26 28 1 22 5 27 28 27 23 -1 26 3 26 32 0 29 -3
33 -27 33 -23 0 -28 4 -28 25 0 21 5 25 28 25 24 0 27 3 27 35 0 30 -3 35 -24
35 -17 0 -25 7 -28 25 -5 22 -2 25 23 25 26 0 29 3 29 35 0 31 -3 35 -25 35
-20 0 -25 5 -25 25 0 20 5 25 25 25 22 0 25 4 25 35 0 32 -3 35 -29 35 -25 0
-28 3 -23 25 3 18 11 25 28 25 21 0 24 5 24 36 0 30 -3 35 -22 32 -16 -2 -23
4 -29 25 -7 25 -5 27 22 27 26 0 29 4 29 30 0 25 -4 30 -25 30 -21 0 -25 5
-25 30 0 25 4 30 25 30 21 0 25 5 25 30 0 25 -4 30 -25 30 -21 0 -25 5 -25 30
0 25 4 30 25 30 22 0 25 4 25 36 0 33 -2 36 -24 32 -19 -4 -25 0 -29 19 -2 12
1 24 7 24 6 1 18 2 26 3 9 0 16 13 18 34 3 28 0 32 -21 32 -18 0 -26 6 -29 25
-5 22 -2 25 23 25 l29 0 0 73 c0 95 -12 107 -110 107 -68 0 -70 -1 -70 -25 0
-20 -5 -25 -25 -25 -20 0 -25 5 -25 24 0 20 -6 25 -35 28 -33 4 -35 2 -35 -24
0 -23 -4 -28 -25 -28 -20 0 -25 5 -25 24 0 20 -6 25 -35 28 -33 4 -35 2 -35
-24 0 -23 -4 -28 -25 -28 -20 0 -25 5 -25 25 0 21 -5 25 -29 25 -23 0 -30 -5
-33 -22 -2 -17 -11 -24 -30 -26 -24 -3 -28 0 -28 22 0 22 -4 26 -30 26 -26 0
-30 -4 -30 -26 0 -22 -4 -25 -27 -22 -20 2 -29 9 -31 24 -2 17 -12 23 -38 26
-32 4 -34 2 -34 -25 0 -24 -4 -28 -22 -25 -15 2 -23 10 -23 23 0 15 -8 21 -32
23 -26 3 -32 -1 -35 -20 -2 -15 -11 -24 -25 -26 -19 -3 -23 1 -23 21 0 21 -6
25 -35 29 -33 4 -35 2 -35 -25 0 -25 -3 -28 -27 -25 -20 2 -29 9 -31 24 -2 16
-12 23 -33 26 -26 4 -29 2 -29 -24 0 -23 -4 -28 -24 -28 -18 0 -26 6 -28 22
-2 16 -12 24 -35 29 -31 6 -33 5 -33 -22 0 -24 -4 -29 -25 -29 -21 0 -25 5
-25 28 0 26 -2 28 -35 24 -29 -3 -35 -8 -35 -28 0 -19 -5 -24 -25 -24 -21 0
-25 5 -25 30 0 17 -3 29 -7 29 -5 -1 -20 -4 -35 -6z m390 -279 c-3 -16 -14
-19 -76 -22 l-72 -3 0 -69 c0 -69 0 -70 28 -71 65 -3 67 -3 67 -29 0 -23 -4
-25 -45 -25 l-45 0 -3 -72 -3 -72 73 -3 c68 -3 73 -4 73 -25 0 -13 -3 -23 -7
-23 -5 0 -60 0 -123 0 l-115 0 0 220 0 219 118 3 c64 2 121 0 125 -3 5 -4 7
-15 5 -25z m268 8 c27 -21 47 -59 39 -72 -12 -19 -42 -10 -53 15 -10 21 -19
25 -52 25 -40 0 -40 0 -40 -38 0 -33 8 -45 61 -97 69 -68 89 -101 89 -145 0
-38 -24 -86 -49 -100 -25 -13 -127 -13 -152 0 -19 10 -49 59 -49 80 0 22 47
10 58 -15 10 -21 19 -25 52 -25 l40 0 0 41 c0 38 -6 47 -76 117 l-76 75 4 55
c7 78 36 102 121 102 44 0 68 -6 83 -18z m375 -11 c26 -26 29 -36 29 -90 0
-53 -4 -65 -29 -93 -27 -30 -33 -33 -95 -33 -37 0 -66 -4 -67 -10 0 -5 -1 -49
-2 -97 -1 -87 -1 -88 -26 -89 -32 -2 -65 2 -70 7 -5 5 -7 425 -2 430 2 2 56 4
118 4 113 0 115 0 144 -29z m-473 -537 c3 -29 -4 -37 -85 -100 l-87 -69 41 -7
c50 -8 85 -30 110 -66 15 -22 18 -47 18 -139 0 -109 0 -112 -31 -150 -42 -51
-87 -66 -197 -61 -68 3 -93 9 -115 25 -33 24 -72 80 -72 103 0 11 7 16 23 14
12 -1 28 -3 35 -3 6 -1 12 -7 12 -15 0 -8 12 -24 27 -36 23 -18 38 -20 102
-18 l76 3 3 138 3 137 -101 0 -100 0 0 34 c0 30 8 40 80 97 43 35 79 67 80 72
0 4 -54 7 -120 7 l-120 0 0 28 c0 16 3 32 7 36 4 3 97 5 207 4 l201 -3 3 -31z
m419 10 c51 -39 67 -70 71 -143 l4 -68 -142 -146 c-95 -98 -140 -152 -136
-162 4 -12 29 -15 141 -15 l136 0 -3 -32 -3 -33 -207 -3 -208 -2 0 47 c0 48 0
48 140 193 l139 145 1 88 0 87 -79 0 c-69 0 -81 -3 -105 -25 -14 -13 -26 -29
-26 -35 0 -5 -16 -10 -36 -10 -29 0 -35 3 -30 16 3 9 6 19 6 24 0 17 55 73 85
87 21 9 60 12 127 10 79 -2 103 -6 125 -23z"/>
<path d="M1295 1507 l0 -72 48 -1 c26 -1 47 2 48 7 0 5 1 25 1 44 0 101 3 95
-49 95 l-48 0 0 -73z"/>
</g>
</svg>
